<svg width="24" height="24" viewBox="0 0 24 24" fill="none" xmlns="http://www.w3.org/2000/svg">
<g clip-path="url(#clip0_104_1367)">
<path d="M22.8047 1L13.44 7.95529L15.1718 3.85177L22.8047 1Z" fill="#E2761B" stroke="#E2761B" stroke-width="0.1875" stroke-linecap="round" stroke-linejoin="round"/>
<path d="M1.18585 1L10.4753 8.02118L8.8282 3.85177L1.18585 1Z" fill="#E4761B" stroke="#E4761B" stroke-width="0.1875" stroke-linecap="round" stroke-linejoin="round"/>
<path d="M19.4353 17.1223L16.9412 20.9435L22.2776 22.4118L23.8117 17.2071L19.4353 17.1223Z" fill="#E4761B" stroke="#E4761B" stroke-width="0.1875" stroke-linecap="round" stroke-linejoin="round"/>
<path d="M0.197632 17.2071L1.72234 22.4118L7.05881 20.9435L4.56469 17.1223L0.197632 17.2071Z" fill="#E4761B" stroke="#E4761B" stroke-width="0.1875" stroke-linecap="round" stroke-linejoin="round"/>
<path d="M6.75763 10.6659L5.27057 12.9153L10.5694 13.1506L10.3812 7.45648L6.75763 10.6659Z" fill="#E4761B" stroke="#E4761B" stroke-width="0.1875" stroke-linecap="round" stroke-linejoin="round"/>
<path d="M17.2329 10.6659L13.5624 7.39059L13.44 13.1506L18.7294 12.9153L17.2329 10.6659Z" fill="#E4761B" stroke="#E4761B" stroke-width="0.1875" stroke-linecap="round" stroke-linejoin="round"/>
<path d="M7.05884 20.9435L10.24 19.3906L7.49178 17.2447L7.05884 20.9435Z" fill="#E4761B" stroke="#E4761B" stroke-width="0.1875" stroke-linecap="round" stroke-linejoin="round"/>
<path d="M13.7505 19.3906L16.9411 20.9435L16.4988 17.2447L13.7505 19.3906Z" fill="#E4761B" stroke="#E4761B" stroke-width="0.1875" stroke-linecap="round" stroke-linejoin="round"/>
<path d="M16.9412 20.9435L13.7506 19.3906L14.0047 21.4706L13.9765 22.3459L16.9412 20.9435Z" fill="#D7C1B3" stroke="#D7C1B3" stroke-width="0.1875" stroke-linecap="round" stroke-linejoin="round"/>
<path d="M7.05884 20.9435L10.0235 22.3459L10.0047 21.4706L10.24 19.3906L7.05884 20.9435Z" fill="#D7C1B3" stroke="#D7C1B3" stroke-width="0.1875" stroke-linecap="round" stroke-linejoin="round"/>
<path d="M10.0706 15.8706L7.41644 15.0894L9.28938 14.2329L10.0706 15.8706Z" fill="#233447" stroke="#233447" stroke-width="0.1875" stroke-linecap="round" stroke-linejoin="round"/>
<path d="M13.92 15.8706L14.7012 14.2329L16.5835 15.0894L13.92 15.8706Z" fill="#233447" stroke="#233447" stroke-width="0.1875" stroke-linecap="round" stroke-linejoin="round"/>
<path d="M7.05882 20.9435L7.51058 17.1223L4.5647 17.2071L7.05882 20.9435Z" fill="#CD6116" stroke="#CD6116" stroke-width="0.1875" stroke-linecap="round" stroke-linejoin="round"/>
<path d="M16.4894 17.1223L16.9411 20.9435L19.4353 17.2071L16.4894 17.1223Z" fill="#CD6116" stroke="#CD6116" stroke-width="0.1875" stroke-linecap="round" stroke-linejoin="round"/>
<path d="M18.7294 12.9153L13.44 13.1506L13.9294 15.8706L14.7106 14.2329L16.5929 15.0894L18.7294 12.9153Z" fill="#CD6116" stroke="#CD6116" stroke-width="0.1875" stroke-linecap="round" stroke-linejoin="round"/>
<path d="M7.41645 15.0894L9.2988 14.2329L10.0706 15.8706L10.5694 13.1506L5.27057 12.9153L7.41645 15.0894Z" fill="#CD6116" stroke="#CD6116" stroke-width="0.1875" stroke-linecap="round" stroke-linejoin="round"/>
<path d="M5.27057 12.9153L7.49175 17.2447L7.41645 15.0894L5.27057 12.9153Z" fill="#E4751F" stroke="#E4751F" stroke-width="0.1875" stroke-linecap="round" stroke-linejoin="round"/>
<path d="M16.5929 15.0894L16.4988 17.2447L18.7294 12.9153L16.5929 15.0894Z" fill="#E4751F" stroke="#E4751F" stroke-width="0.1875" stroke-linecap="round" stroke-linejoin="round"/>
<path d="M10.5694 13.1506L10.0706 15.8706L10.6917 19.08L10.8329 14.8541L10.5694 13.1506Z" fill="#E4751F" stroke="#E4751F" stroke-width="0.1875" stroke-linecap="round" stroke-linejoin="round"/>
<path d="M13.44 13.1506L13.1859 14.8447L13.2988 19.08L13.9294 15.8706L13.44 13.1506Z" fill="#E4751F" stroke="#E4751F" stroke-width="0.1875" stroke-linecap="round" stroke-linejoin="round"/>
<path d="M13.9294 15.8706L13.2988 19.08L13.7506 19.3906L16.4988 17.2447L16.5929 15.0894L13.9294 15.8706Z" fill="#F6851B" stroke="#F6851B" stroke-width="0.1875" stroke-linecap="round" stroke-linejoin="round"/>
<path d="M7.41644 15.0894L7.49174 17.2447L10.24 19.3906L10.6917 19.08L10.0706 15.8706L7.41644 15.0894Z" fill="#F6851B" stroke="#F6851B" stroke-width="0.1875" stroke-linecap="round" stroke-linejoin="round"/>
<path d="M13.9765 22.3459L14.0047 21.4706L13.7694 21.2635H10.2212L10.0047 21.4706L10.0235 22.3459L7.05884 20.9435L8.09413 21.7906L10.193 23.2494H13.7977L15.9059 21.7906L16.9412 20.9435L13.9765 22.3459Z" fill="#C0AD9E" stroke="#C0AD9E" stroke-width="0.1875" stroke-linecap="round" stroke-linejoin="round"/>
<path d="M13.7506 19.3906L13.2988 19.08H10.6918L10.24 19.3906L10.0047 21.4706L10.2212 21.2635H13.7694L14.0047 21.4706L13.7506 19.3906Z" fill="#161616" stroke="#161616" stroke-width="0.1875" stroke-linecap="round" stroke-linejoin="round"/>
<path d="M23.2 8.40706L24 4.56706L22.8047 1L13.7506 7.72L17.233 10.6659L22.1553 12.1059L23.2471 10.8353L22.7765 10.4965L23.5294 9.80941L22.9459 9.35765L23.6988 8.78353L23.2 8.40706Z" fill="#763D16" stroke="#763D16" stroke-width="0.1875" stroke-linecap="round" stroke-linejoin="round"/>
<path d="M0 4.56706L0.8 8.40706L0.291765 8.78353L1.04471 9.35765L0.470588 9.80941L1.22353 10.4965L0.752941 10.8353L1.83529 12.1059L6.75765 10.6659L10.24 7.72L1.18588 1L0 4.56706Z" fill="#763D16" stroke="#763D16" stroke-width="0.1875" stroke-linecap="round" stroke-linejoin="round"/>
<path d="M22.1553 12.1059L17.233 10.6659L18.7294 12.9153L16.4988 17.2447L19.4353 17.2071H23.8118L22.1553 12.1059Z" fill="#F6851B" stroke="#F6851B" stroke-width="0.1875" stroke-linecap="round" stroke-linejoin="round"/>
<path d="M6.75763 10.6659L1.83528 12.1059L0.197632 17.2071H4.56469L7.49175 17.2447L5.27057 12.9153L6.75763 10.6659Z" fill="#F6851B" stroke="#F6851B" stroke-width="0.1875" stroke-linecap="round" stroke-linejoin="round"/>
<path d="M13.44 13.1506L13.7506 7.72001L15.1812 3.85178H8.82825L10.24 7.72001L10.5694 13.1506L10.6824 14.8635L10.6918 19.08H13.2988L13.3177 14.8635L13.44 13.1506Z" fill="#F6851B" stroke="#F6851B" stroke-width="0.1875" stroke-linecap="round" stroke-linejoin="round"/>
</g>
<defs>
<clipPath id="clip0_104_1367">
<rect width="24" height="24" fill="white"/>
</clipPath>
</defs>
</svg>
