<svg width="24" height="24" viewBox="0 0 24 24" fill="none" xmlns="http://www.w3.org/2000/svg">
<g clip-path="url(#clip0_1_971)">
<path d="M23.9999 11.9999C23.9999 18.6274 18.6274 24 12 24C5.37255 24 0 18.6274 0 11.9999C0 5.37255 5.37255 0 12 0C18.6273 0 23.9999 5.37255 23.9999 11.9999Z" fill="#00A478"/>
<path d="M10.342 11.1364V7.86636H5.90674V5H18.3005V7.90674H13.8653V11.1364H10.342Z" fill="white"/>
<path fill-rule="evenodd" clip-rule="evenodd" d="M4 11.4998C4 10.4098 7.56477 9.52161 12 9.52161C16.4352 9.52161 20 10.4098 20 11.4998C20 12.5898 16.4352 13.478 12 13.478C7.56477 13.478 4 12.5898 4 11.4998ZM19.3368 11.4998C19.0466 11.0961 16.6425 9.84456 12 9.84456C7.3575 9.84456 4.95336 11.0557 4.6632 11.4998C4.95336 11.9035 7.3575 12.5091 12 12.5091C16.6839 12.5091 19.0466 11.9035 19.3368 11.4998Z" fill="white"/>
<path d="M13.8653 12.1457V9.88493C13.285 9.84456 12.6632 9.80419 12.0415 9.80419C11.4611 9.80419 10.9223 9.80419 10.3834 9.84456V12.1054C10.8808 12.1054 11.4611 12.1457 12.0415 12.1457C12.6632 12.1861 13.285 12.1861 13.8653 12.1457Z" fill="white"/>
<path d="M12 13.478C11.4197 13.478 10.8808 13.478 10.342 13.4376V19.4529H13.8238V13.3972C13.2435 13.4376 12.6218 13.478 12 13.478Z" fill="white"/>
</g>
<defs>
<clipPath id="clip0_1_971">
<rect width="24" height="24" rx="12" fill="white"/>
</clipPath>
</defs>
</svg>
